<?xml version="1.0" encoding="iso-8859-1"?>
<!-- Uploaded to: SVG Repo, www.svgrepo.com, Generator: SVG Repo Mixer Tools -->
<!DOCTYPE svg PUBLIC "-//W3C//DTD SVG 1.1//EN" "http://www.w3.org/Graphics/SVG/1.1/DTD/svg11.dtd">
<svg fill="#000000" version="1.1" id="Capa_1" xmlns="http://www.w3.org/2000/svg" xmlns:xlink="http://www.w3.org/1999/xlink" 
	 width="800px" height="800px" viewBox="0 0 25.659 25.659"
	 xml:space="preserve">
<g>
	<g>
		<path d="M24.097,14.809c-0.746,0.198-1.797,0.294-3.247,0.294c-0.068,0-5.476-0.039-8.116-1.042
			c-0.007,0.376-0.062,0.745-0.203,1.101c-0.758,1.944-3.78,4.427-7.561,4.037c-4.341-0.444-4.719,1.359-4.073,3.652
			c0.598,2.116,1.792,2.851,5.235,2.807c7.418-0.098,11.797,0.002,16.434-1.271c3.027-0.832,2.115-3.118,1.664-6.22
			C24.078,17.091,24.058,15.943,24.097,14.809z M1.69,22.629c-0.028-0.099-0.042-0.182-0.063-0.275l2.875-2.358
			c0.132,0.009,0.244,0.006,0.386,0.021c0.373,0.038,0.739,0.043,1.101,0.033l-4.027,3.306C1.858,23.137,1.766,22.903,1.69,22.629z
			 M5.842,24.838c-0.422,0-0.789-0.016-1.127-0.042l11.211-9.202c0.465,0.062,0.926,0.109,1.373,0.149L6.224,24.835L5.842,24.838z
			 M10.802,24.78l10.799-8.865c0.63-0.018,1.18-0.055,1.657-0.114c0,0.01,0.001,0.019,0.001,0.028l-10.87,8.922
			C11.878,24.763,11.348,24.771,10.802,24.78z M19.03,24.279c-0.592,0.087-1.199,0.158-1.817,0.216l6.367-5.228
			c0.018,0.096,0.033,0.2,0.049,0.294c0.052,0.302,0.097,0.572,0.137,0.831L19.03,24.279z"/>
		<path d="M24.523,7.469c-1.024-0.954-3.288,0.154-5.656,0.126c-0.062,0-0.125-0.009-0.188-0.011l-0.424-0.733l-1.617,0.28v0.263
			c-0.121-0.016-0.24-0.034-0.361-0.052V5.744l-1.453,0.841V7.14c-1.159-0.142-2.155-0.168-2.796,0.265
			c-1.779,1.203-0.742,3.382,0.062,5.365c0.574,1.417,12.532,2.279,12.643,0.742C24.934,10.71,25.332,8.22,24.523,7.469z
			 M23.416,9.944c-0.387,0.181-1.166,0.064-2.562,0.064c-0.327,0-0.651,0-0.975-0.001c0.004-0.05,0.012-0.1,0.008-0.151l-0.85,0.146
			c-2.701-0.014-5.081-0.082-5.828-0.368c-0.909-0.35-0.983-0.894-0.415-1.178c0.395-0.197,1.262-0.123,2.03-0.045v1.224
			l0.727-0.874l0.727,0.874V8.521c0.472,0.024,0.966,0.043,1.488,0.059l-0.581,0.101l0.54,0.935L19.66,9.28l-0.395-0.681
			c0.883-0.01,1.723-0.056,2.464-0.101c0.594-0.037,1.553-0.247,1.828-0.064C23.833,8.619,23.803,9.762,23.416,9.944z"/>
		<path d="M11.041,4.199c-0.01-0.018-0.014-0.037-0.024-0.053c-0.17-0.294-0.227-0.623-0.19-0.938L8.974,3.529
			c0.016,0.334,0.08,0.669,0.197,0.995L11.041,4.199z"/>
		<path d="M10.68,5.405c0.234-0.135,0.383-0.358,0.436-0.604L9.438,5.092C9.7,5.513,10.248,5.654,10.68,5.405z"/>
		<path d="M11.579,2.047c0.557-0.322,1.229-0.253,1.71,0.118l2.057-0.356l-0.069-0.12c-0.174-0.3-0.387-0.563-0.629-0.788
			L9.354,1.818C9.177,2.16,9.058,2.528,9.005,2.908l2.056-0.357C11.188,2.351,11.359,2.174,11.579,2.047z"/>
		<path d="M10.657,0.45c-0.317,0.184-0.591,0.412-0.823,0.669l4.115-0.712C12.951-0.129,11.707-0.156,10.657,0.45z"/>
		<polygon points="16.637,6.516 17.5,6.367 16.637,5.869 		"/>
		<path d="M14.191,3.498c0.283-0.013,0.557-0.002,0.79,0.018l0.368-0.065c0.106-0.231,0.262-0.539,0.454-0.846l-0.136-0.237
			l-1.935,0.335L14.191,3.498z"/>
		<polygon points="18.166,4.654 16.711,5.494 20.081,7.44 19.688,6.374 20.809,6.18 		"/>
		<path d="M13.294,4.034c-0.793,0.354-0.818,0.83-0.711,1.014l0.865,1.498c0.107,0.185,0.49,0.318,1.232-0.11
			c0.743-0.43,1.714-0.989,1.714-0.989s0.973-0.562,1.713-0.99c0.74-0.428,0.819-0.827,0.713-1.011l-0.866-1.499
			c-0.107-0.184-0.53-0.447-1.232,0.109c-0.669,0.532-1.193,1.891-1.193,1.891S14.079,3.686,13.294,4.034z M13.814,4.936
			c-0.535,0.309-0.816,0.261-0.895,0.125c-0.078-0.136-0.032-0.477,0.557-0.714c0.367-0.148,1.021-0.186,1.558-0.115L13.814,4.936z
			 M16.904,2.369c0.494-0.377,0.815-0.26,0.894-0.125c0.079,0.136-0.02,0.404-0.556,0.714L16.025,3.66
			C16.231,3.159,16.587,2.607,16.904,2.369z M15.762,4.351c0.192-0.11,0.434-0.044,0.542,0.147c0.11,0.189,0.047,0.433-0.145,0.542
			c-0.191,0.11-0.434,0.044-0.543-0.146C15.505,4.705,15.571,4.461,15.762,4.351z"/>
	</g>
</g>
</svg>