<?xml version="1.0" encoding="iso-8859-1"?>
<!-- Uploaded to: SVG Repo, www.svgrepo.com, Generator: SVG Repo Mixer Tools -->
<!DOCTYPE svg PUBLIC "-//W3C//DTD SVG 1.1//EN" "http://www.w3.org/Graphics/SVG/1.1/DTD/svg11.dtd">
<svg fill="#000000" version="1.1" id="Capa_1" xmlns="http://www.w3.org/2000/svg" xmlns:xlink="http://www.w3.org/1999/xlink" 
	 width="800px" height="800px" viewBox="0 0 26.81 26.81" xml:space="preserve"
	>
<g>
	<g>
		<path d="M22.615,8.376c0.08,0.714-0.047,1.457-0.434,2.126c-0.021,0.039-0.033,0.081-0.053,0.12l4.236,0.734
			c0.266-0.736,0.412-1.496,0.444-2.253L22.615,8.376z"/>
		<path d="M22.947,13.356c0.979,0.565,2.22,0.244,2.812-0.709l-3.805-0.659C22.076,12.543,22.414,13.049,22.947,13.356z"/>
		<path d="M26.742,7.696c-0.123-0.858-0.389-1.692-0.791-2.467L13.959,3.15c-0.548,0.507-1.03,1.104-1.423,1.783l-0.158,0.273
			l4.659,0.808c1.087-0.839,2.611-0.994,3.871-0.267c0.498,0.287,0.886,0.688,1.176,1.142L26.742,7.696z"/>
		<path d="M22.996,2.129c-2.379-1.374-5.193-1.313-7.455-0.101l9.318,1.615C24.337,3.06,23.715,2.544,22.996,2.129z"/>
		<path d="M3.119,25.42c0.999,0.577,2.275,0.234,2.854-0.766l0.283-0.491l-4.168-0.723C2.025,24.221,2.397,25.004,3.119,25.42z"/>
		<polygon points="2.603,22.136 6.989,22.896 8.211,20.778 3.827,20.018 		"/>
		<polygon points="4.558,18.75 8.944,19.51 9.446,18.641 9.446,17.267 5.783,16.631 		"/>
		<polygon points="9.447,15.874 9.447,14.406 7.494,15.534 		"/>
		<path d="M13.201,9.074c0.528-0.044,1.149-0.067,1.79-0.04l1.041-1.8l-4.384-0.76l-0.309,0.535c0.437,0.696,0.788,1.395,1.029,1.92
			L13.201,9.074z"/>
		<polygon points="9.282,13.556 5.987,11.653 0,15.113 2.537,15.552 1.647,17.968 		"/>
		<polygon points="10.262,22.941 11.909,20.963 13.558,22.941 13.561,16.027 10.265,14.125 		"/>
		<path d="M17.02,10.251c-1.773-0.789-5.06-0.2-5.06-0.2s-1.188-3.076-2.704-4.283c-1.587-1.261-2.549-0.667-2.79-0.249L4.503,8.917
			c-0.24,0.418-0.065,1.321,1.613,2.292c1.679,0.968,3.882,2.24,3.882,2.24s2.199,1.271,3.882,2.241
			c1.681,0.971,2.55,0.668,2.791,0.251l1.961-3.396C18.875,12.127,18.818,11.053,17.02,10.251z M8.08,7.811
			C6.865,7.109,6.642,6.502,6.819,6.194c0.178-0.308,0.908-0.57,2.029,0.283c0.713,0.54,1.52,1.792,1.989,2.926L8.08,7.811z
			 M11.76,12.2c-0.248,0.432-0.798,0.582-1.231,0.332c-0.434-0.25-0.576-0.801-0.327-1.23c0.247-0.433,0.795-0.582,1.229-0.332
			C11.864,11.219,12.01,11.77,11.76,12.2z M17.873,12.576c-0.18,0.31-0.817,0.418-2.03-0.282l-2.76-1.595
			c1.215-0.159,2.696-0.074,3.528,0.261C17.945,11.494,18.05,12.268,17.873,12.576z"/>
	</g>
</g>
</svg>