<?xml version="1.0" encoding="iso-8859-1"?>
<!-- Uploaded to: SVG Repo, www.svgrepo.com, Generator: SVG Repo Mixer Tools -->
<!DOCTYPE svg PUBLIC "-//W3C//DTD SVG 1.1//EN" "http://www.w3.org/Graphics/SVG/1.1/DTD/svg11.dtd">
<svg fill="#000000" version="1.1" id="Capa_1" xmlns="http://www.w3.org/2000/svg" xmlns:xlink="http://www.w3.org/1999/xlink" 
	 width="800px" height="800px" viewBox="0 0 31.589 31.589"
	 xml:space="preserve">
<g>
	<g>
		<path d="M29.257,10.253c0.227-3.171,0.676-5.989-0.237-6.838c-1.161-1.08-3.718,0.175-6.4,0.142
			c-3.04-0.038-6.239-1.225-7.736-0.214c-2.014,1.362-0.84,3.827,0.069,6.07C15.603,11.015,29.132,11.99,29.257,10.253z
			 M15.751,4.535c0.643-0.322,2.409-0.005,3.325,0.043c1.082,0.056,2.308,0.12,3.649,0.125c1.131,0,2.195-0.065,3.135-0.123
			c0.672-0.042,1.756-0.28,2.067-0.072c0.313,0.208,0.278,1.503-0.16,1.707C27.33,6.42,26.447,6.29,24.866,6.29
			c-3.839,0-7.617-0.028-8.644-0.423C15.193,5.471,15.109,4.857,15.751,4.535z"/>
		<path d="M27.667,25.852h-4.651v-2.507c1.281-0.192,2.529-0.445,3.792-0.792c3.427-0.94,2.393-3.528,1.884-7.037
			c-0.177-1.216-0.197-2.515-0.152-3.798c-0.844,0.224-2.032,0.332-3.674,0.332c-0.076,0-6.191-0.044-9.179-1.18
			c-0.007,0.426-0.07,0.845-0.229,1.246c-0.856,2.201-4.277,5.009-8.554,4.569c-4.909-0.504-5.337,1.535-4.607,4.132
			c0.677,2.394,2.028,3.225,5.924,3.173c0.122-0.001,0.23-0.002,0.351-0.004v1.866H3.923C1.756,25.852,0,22.567,0,24.731
			c0,2.166,1.756,3.923,3.923,3.923h23.745c2.166,0,3.922-1.756,3.922-3.923C31.589,22.565,29.833,25.852,27.667,25.852z
			 M28.009,17.094c0.06,0.341,0.109,0.648,0.152,0.939l-5.357,4.397c-0.67,0.099-1.356,0.178-2.055,0.243l7.203-5.912
			C27.972,16.87,27.991,16.988,28.009,17.094z M25.714,12.969c0.713-0.02,1.334-0.061,1.878-0.129c0,0.013,0,0.021,0,0.031
			L15.294,22.965c-0.58,0.013-1.178,0.023-1.796,0.032L25.714,12.969z M3.188,20.565c-0.031-0.112-0.046-0.206-0.068-0.311
			l3.251-2.668c0.151,0.01,0.277,0.008,0.435,0.023c0.422,0.044,0.836,0.049,1.246,0.038l-4.555,3.739
			C3.382,21.14,3.278,20.874,3.188,20.565z M7.889,23.063c-0.478,0-0.892-0.017-1.274-0.047l12.683-10.409
			c0.524,0.067,1.048,0.123,1.552,0.168L8.32,23.059L7.889,23.063z M10.672,23.962c4.076-0.045,7.321-0.079,10.244-0.36v2.25H10.672
			V23.962z"/>
	</g>
</g>
</svg>