<?xml version="1.0" encoding="iso-8859-1"?>
<!-- Uploaded to: SVG Repo, www.svgrepo.com, Generator: SVG Repo Mixer Tools -->
<!DOCTYPE svg PUBLIC "-//W3C//DTD SVG 1.1//EN" "http://www.w3.org/Graphics/SVG/1.1/DTD/svg11.dtd">
<svg fill="#000000" version="1.1" id="Capa_1" xmlns="http://www.w3.org/2000/svg" xmlns:xlink="http://www.w3.org/1999/xlink" 
	 width="800px" height="800px" viewBox="0 0 39.541 39.541"
	 xml:space="preserve">
<g>
	<g>
		<path d="M23.234,19.302c-2.134-0.438-3.448-3.009-3.448-3.009S18.229,18.454,16.339,19c0.632,1.395,0.77,3.693-1.584,4.569
			c1.424,0.521,2.624,1.669,1.969,4.706c2.271,0.272,2.571,3.255,3.062,4.349c0.659-1.723,0.849-3.886,2.929-4.159
			c-0.576-2.57,0.956-4.375,2.053-4.841C23.344,22.693,22.003,21.188,23.234,19.302z"/>
		<path d="M13.756,12.008c-2.138,0.699-3.244-0.985-3.775-2.601c-0.734,0.939-2.876,1.95-5.208,0.731
			C3.969,12.073,1.831,11.701,0,11.89c0.929,0.757,3.729,1.818,3.407,4.082c3.105,0.152,3.902,1.61,4.036,3.123
			c1.455-2.048,3.637-1.321,4.823-0.349c1.014-1.682,3.509-2.63,3.509-2.63S13.631,14.18,13.756,12.008z"/>
		<path d="M34.768,10.143c-2.332,1.22-4.479,0.209-5.208-0.731c-0.53,1.617-1.637,3.301-3.774,2.601
			c0.128,2.175-2.019,4.108-2.019,4.108s2.492,0.947,3.51,2.629c1.182-0.971,3.366-1.696,4.821,0.347
			c0.135-1.507,0.935-2.967,4.033-3.12c-0.325-2.262,2.481-3.326,3.409-4.083C37.711,11.705,35.57,12.08,34.768,10.143z"/>
		<path d="M16.083,13.259c0,1.383,1.119,2.504,2.499,2.504c1.12,0,2.031-0.747,2.354-1.759c-1.332-0.541-2.31-1.751-2.544-3.209
			C17.104,10.896,16.083,11.943,16.083,13.259z M18.915,14.436c0,0.224-0.182,0.408-0.408,0.408c-0.221,0-0.407-0.183-0.407-0.408
			c0-0.225,0.187-0.407,0.407-0.407C18.733,14.029,18.915,14.211,18.915,14.436z"/>
		<path d="M22.508,13.354c1.777,0,3.222-1.443,3.222-3.22c0-1.777-1.444-3.218-3.222-3.218c-1.779,0-3.217,1.441-3.217,3.218
			C19.291,11.911,20.729,13.354,22.508,13.354z M23.769,8.739c0.227,0,0.407,0.182,0.407,0.407c0,0.225-0.181,0.407-0.407,0.407
			c-0.226,0-0.406-0.182-0.406-0.407C23.363,8.921,23.543,8.739,23.769,8.739z"/>
		<path d="M16.064,11.151c0.558-0.672,1.36-1.122,2.279-1.194c0.032-0.68,0.227-1.312,0.541-1.869
			c-0.394-0.559-1.009-0.949-1.743-0.949c-1.199,0-2.168,0.971-2.168,2.169C14.973,10.106,15.423,10.775,16.064,11.151z
			 M16.927,7.62c0.226,0,0.407,0.182,0.407,0.407s-0.182,0.407-0.407,0.407S16.52,8.252,16.52,8.027
			C16.521,7.802,16.703,7.62,16.927,7.62z"/>
	</g>
</g>
</svg>