<?xml version="1.0" encoding="iso-8859-1"?>
<!-- Uploaded to: SVG Repo, www.svgrepo.com, Generator: SVG Repo Mixer Tools -->
<!DOCTYPE svg PUBLIC "-//W3C//DTD SVG 1.1//EN" "http://www.w3.org/Graphics/SVG/1.1/DTD/svg11.dtd">
<svg fill="#000000" version="1.1" id="Capa_1" xmlns="http://www.w3.org/2000/svg" xmlns:xlink="http://www.w3.org/1999/xlink" 
	 width="800px" height="800px" viewBox="0 0 22.125 22.125"
	 xml:space="preserve">
<g>
	<g>
		<path d="M11.111,16.648c-1.943,0-3.622-0.984-4.418-2.406c-0.838,0.896-1.344,2.049-1.344,3.31c0,2.851,2.58,4.573,5.762,4.573
			c3.183,0,5.762-1.723,5.762-4.573c0-1.261-0.505-2.413-1.343-3.31C14.734,15.664,13.055,16.648,11.111,16.648z"/>
		<path d="M11.111,10.602c1.638,0,2.966-1.328,2.966-2.966c0-0.692-0.248-1.322-0.646-1.827h0.271c0.276,0,0.504-0.214,0.504-0.476
			V5.038c0-0.261-0.228-0.476-0.504-0.476H8.651c-0.278,0-0.506,0.215-0.506,0.476v0.295c0,0.262,0.228,0.476,0.506,0.476h0.141
			C8.395,6.314,8.146,6.944,8.146,7.636C8.146,9.273,9.474,10.602,11.111,10.602z M11.131,7.148c0.306,0,0.553,0.281,0.553,0.629
			c0,0.347-0.553,0.972-0.553,0.972s-0.552-0.625-0.552-0.972C10.58,7.43,10.826,7.148,11.131,7.148z M10.143,7.148
			c-0.275,0-0.499-0.223-0.499-0.498s0.224-0.498,0.499-0.498c0.273,0,0.498,0.223,0.498,0.498S10.416,7.148,10.143,7.148z
			 M11.582,6.65c0-0.275,0.225-0.498,0.498-0.498c0.275,0,0.499,0.223,0.499,0.498s-0.224,0.498-0.499,0.498
			C11.806,7.148,11.582,6.926,11.582,6.65z M11.111,9.987c-1.042,0-1.887-1.049-1.887-1.596c0-0.544,0.845,0.957,1.887,0.957
			c1.043,0,1.887-1.501,1.887-0.957C12.998,8.938,12.154,9.987,11.111,9.987z"/>
		<path d="M18.356,9.281c0.473-0.527,0.898-0.944,1.104-0.959c0.182-0.013,0.316-0.169,0.306-0.349
			c-0.014-0.181-0.174-0.317-0.351-0.305c-0.557,0.039-1.236,0.773-2.312,2.071c0.11-0.603,0.098-1.198-0.271-1.509
			c-0.139-0.116-0.346-0.099-0.462,0.04s-0.099,0.345,0.039,0.461c0.271,0.229-0.01,1.421-0.435,2.369
			c-0.222,0.262-0.441,0.516-0.658,0.75c-0.146-0.813-0.61-1.539-1.287-2.08c-0.659,0.899-1.72,1.485-2.917,1.485
			S8.854,10.669,8.194,9.77c-0.702,0.56-1.178,1.318-1.304,2.169c-0.242-0.26-0.491-0.547-0.739-0.84
			c-0.425-0.948-0.706-2.141-0.436-2.369C5.854,8.615,5.871,8.409,5.755,8.27C5.64,8.131,5.433,8.114,5.293,8.23
			C4.924,8.541,4.91,9.136,5.022,9.739C3.946,8.441,3.266,7.707,2.709,7.668c-0.177-0.013-0.337,0.124-0.35,0.305
			c-0.012,0.18,0.124,0.336,0.305,0.349c0.205,0.015,0.632,0.432,1.104,0.959C3.266,9.293,2.668,9.436,2.44,10.03
			c-0.051,0.135,0.017,0.286,0.15,0.339c0.031,0.012,0.063,0.018,0.096,0.018c0.104,0,0.204-0.064,0.244-0.169
			c0.188-0.49,0.964-0.437,1.315-0.385c0.227,0.268,0.449,0.539,0.652,0.786c0.675,0.822,1.365,1.658,1.997,2.26
			c0.28,1.76,2.059,3.116,4.215,3.116c2.203,0,4.015-1.415,4.234-3.229c0.6-0.591,1.246-1.375,1.88-2.146
			c0.203-0.247,0.427-0.519,0.651-0.786c0.354-0.052,1.128-0.105,1.316,0.385c0.04,0.104,0.139,0.169,0.244,0.169
			c0.03,0,0.062-0.006,0.095-0.018c0.135-0.053,0.202-0.204,0.15-0.339C19.456,9.437,18.859,9.293,18.356,9.281z"/>
		<path d="M12.317,2.282l1.236,0.208c-0.007,0.032-0.011,0.063-0.011,0.097c0,0.319,0.261,0.579,0.578,0.579
			c0.32,0,0.579-0.26,0.579-0.579c0-0.319-0.258-0.578-0.578-0.578c-0.173,0-0.326,0.078-0.433,0.198L11.176,0L8.989,4.372h4.373
			L12.317,2.282z"/>
	</g>
</g>
</svg>